<?xml version="1.0" encoding="utf-8"?>
<!-- Generator: Adobe Illustrator 15.0.2, SVG Export Plug-In . SVG Version: 6.00 Build 0)  -->
<!DOCTYPE svg PUBLIC "-//W3C//DTD SVG 1.1//EN" "http://www.w3.org/Graphics/SVG/1.1/DTD/svg11.dtd">
<svg version="1.1" id="Layer_1" xmlns="http://www.w3.org/2000/svg" xmlns:xlink="http://www.w3.org/1999/xlink" x="0px" y="0px"
	 width="72px" height="72px" viewBox="0 0 72 72" xml:space="preserve">
<g>
	<path fill="#FFFFFF" d="M57.5751953,10.7807617c-5.6142578-5.1738281-13.109375-8.3349609-21.3457031-8.3349609
		c-8.2324219,0-15.7265625,3.1611328-21.3388672,8.3344727c1.3427734,0.3081055,2.5839844,0.8862305,3.6630859,1.6728516
		c4.4472656-3.6625977,10.0498047-5.9707031,16.1777344-6.2954102l-7.6699219,13.2851562h-5.7705078
		c-0.5644531-4.2788086-4.2246094-7.5810547-8.6572266-7.5810547c-4.8232422,0-8.734375,3.9101562-8.734375,8.7333984
		s3.9111328,8.7333984,8.734375,8.7333984c1.4658203,0,2.8476562-0.3618164,4.0595703-1l2.6181641,4.534668l-7.8984375,13.6787109
		c-1.9238281-3.7832031-3.0097656-8.0634766-3.0097656-12.5966797c0-1.3867188,0.1035156-2.7490234,0.2998047-4.0810547
		c-1.2597656-0.5371094-2.3886719-1.3232422-3.3242188-2.2958984c-0.4238281,2.059082-0.6464844,4.1923828-0.6464844,6.3769531
		c0,14.0595703,9.2167969,25.9677734,21.9345703,30.0185547c-0.3261719-0.9902344-0.5029297-2.046875-0.5029297-3.1425781
		c0-0.3066406,0.0146484-0.6083984,0.0410156-0.9082031c-5.5859375-2.1591797-10.2998047-6.0693359-13.4716797-11.0576172
		h15.8105469l2.7490234,4.7607422c-2.2919922,1.5742188-3.7958984,4.2138672-3.7958984,7.2050781
		c0,4.8222656,3.9101562,8.7324219,8.7333984,8.7324219c4.8242188,0,8.7333984-3.9101562,8.7333984-8.7324219
		c0-2.9902344-1.5009766-5.6269531-3.7910156-7.2011719l2.75-4.7646484h15.8095703
		c-3.1708984,4.9863281-7.8847656,8.8974609-13.4707031,11.0566406c0.0273438,0.2998047,0.0419922,0.6015625,0.0419922,0.9091797
		c0,1.0957031-0.1767578,2.1513672-0.5019531,3.1396484c12.7197266-4.0498047,21.9316406-15.9580078,21.9316406-30.015625
		c0-2.184082-0.2226562-4.3164062-0.6464844-6.375c-0.9345703,0.972168-2.0634766,1.7583008-3.3232422,2.2944336
		c0.1953125,1.3320312,0.2978516,2.6943359,0.2978516,4.0805664c0,4.5341797-1.0869141,8.8154297-3.0107422,12.6005859
		l-7.8955078-13.6801758l2.6171875-4.5341797c1.2128906,0.6362305,2.5908203,0.9970703,4.0546875,0.9970703
		c4.8242188,0,8.7353516-3.9101562,8.7353516-8.7333984s-3.9111328-8.7333984-8.7353516-8.7333984
		c-4.4316406,0-8.0917969,3.3022461-8.6572266,7.5810547h-5.7646484l-7.671875-13.2851562
		c6.1298828,0.3266602,11.7324219,2.6347656,16.1777344,6.2963867
		C54.9921875,11.6674805,56.2314453,11.0893555,57.5751953,10.7807617z M21.2353516,22.1147461h5.3818359
		c-1.2275391,1.0170898-2.296875,2.2294922-3.1503906,3.5742188l-2.8378906-1.5756836
		C20.90625,23.4829102,21.1123047,22.8134766,21.2353516,22.1147461z M18.8535156,26.7250977
		c0.3662109-0.3720703,0.7001953-0.7768555,0.9960938-1.2094727l2.8330078,1.5712891
		c-0.6210938,1.2612305-1.0625,2.6118164-1.3125,3.9975586L18.8535156,26.7250977z M19.0458984,43.6787109l2.8974609-5.0224609
		c0.6347656,1.8388672,1.625,3.5507812,2.9072266,5.0224609H19.0458984z M35.4287109,52.125
		c-0.5917969,0.0517578-1.1669922,0.1660156-1.71875,0.3320312l-2.5947266-4.4941406
		c1.3808594,0.4960938,2.8408203,0.7919922,4.3134766,0.8701172V52.125z M38.7568359,52.4580078
		c-0.5527344-0.1669922-1.1298828-0.2792969-1.7246094-0.3330078v-3.2910156
		c1.4892578-0.0751953,2.9345703-0.3671875,4.3183594-0.8681641L38.7568359,52.4580078z M53.4160156,43.6796875
		l-5.8007812,0.0029297c1.2822266-1.4716797,2.2714844-3.1865234,2.9033203-5.0253906L53.4160156,43.6796875z
		 M53.6123047,26.7290039l-2.5166016,4.359375c-0.25-1.387207-0.6933594-2.7387695-1.3144531-4.0019531l2.8310547-1.5717773
		C52.9091797,25.9492188,53.2441406,26.355957,53.6123047,26.7290039z M51.2275391,22.1157227
		c0.1220703,0.6977539,0.328125,1.3671875,0.6074219,1.9975586l-2.8369141,1.574707
		c-0.8535156-1.3442383-1.9228516-2.5561523-3.1494141-3.5732422L51.2275391,22.1157227z M47.2753906,33.7543945
		c0,6.0913086-4.9541016,11.0454102-11.0429688,11.0454102s-11.0419922-4.953125-11.0419922-11.0415039
		c0-6.0888672,4.953125-11.0424805,11.0419922-11.0424805S47.2753906,27.668457,47.2753906,33.7543945z M39.1376953,18.934082
		c-0.9511719-0.184082-1.9228516-0.2773438-2.9052734-0.2773438s-1.9541016,0.0922852-2.9003906,0.2768555l2.9003906-5.0224609
		L39.1376953,18.934082z"/>
	<path fill="#FFFFFF" d="M28.3271484,33.6850586c0,4.3608398,3.5458984,7.9057617,7.9042969,7.9057617
		c4.3574219,0,7.9033203-3.5449219,7.9033203-7.9057617c0-4.3579102-3.5458984-7.9042969-7.9033203-7.9042969
		C31.8730469,25.7807617,28.3271484,29.3271484,28.3271484,33.6850586z"/>
</g>
</svg>
